<svg xmlns="http://www.w3.org/2000/svg" width="1200" height="660" viewBox="0 0 1200 660" role="img" aria-label="From expense entry to spending insight"><defs><linearGradient id="bg" x2="1" y2="1"><stop stop-color="#f6f8fb"/><stop offset="1" stop-color="#edf1f6"/></linearGradient><pattern id="dots" width="24" height="24" patternUnits="userSpaceOnUse"><circle cx="1" cy="1" r="1" fill="#b1bac6" opacity=".17"/></pattern><marker id="arrow" viewBox="0 0 10 10" refX="8" refY="5" markerWidth="7" markerHeight="7" orient="auto-start-reverse"><path d="M1 1L8 5L1 9" fill="none" stroke="#426f9c" stroke-width="1.5"/></marker></defs><rect width="1200" height="660" rx="18" fill="url(#bg)"/><rect width="1200" height="660" fill="url(#dots)"/><g font-family="Arial,sans-serif"><text x="65" y="75" fill="#426f9c" font-size="18" letter-spacing="3">SMARTEXPENSE / SYSTEM ARCHITECTURE</text><text x="65" y="128" fill="#242b35" font-size="36" font-weight="600">From expense entry to spending insight</text><rect x="65" y="215" width="300" height="120" rx="12" fill="#ffffff" stroke="#d4dce5"/><rect x="65" y="233" width="3" height="84" rx="2" fill="#426f9c"/><text x="89" y="258" fill="#426f9c" font-size="24" font-weight="600">Next.js + React</text><text x="89" y="293" fill="#626d7b" font-size="18">Dashboard · budgets · expenses</text><path d="M385 275L425 275" stroke="#426f9c" stroke-width="2" fill="none" marker-end="url(#arrow)"/><rect x="450" y="215" width="300" height="120" rx="12" fill="#ffffff" stroke="#d4dce5"/><rect x="450" y="233" width="3" height="84" rx="2" fill="#426f9c"/><text x="474" y="258" fill="#426f9c" font-size="24" font-weight="600">FastAPI</text><text x="474" y="293" fill="#626d7b" font-size="18">JWT · user-scoped requests</text><path d="M770 275L810 275" stroke="#426f9c" stroke-width="2" fill="none" marker-end="url(#arrow)"/><rect x="835" y="215" width="300" height="120" rx="12" fill="#ffffff" stroke="#d4dce5"/><rect x="835" y="233" width="3" height="84" rx="2" fill="#5679a6"/><text x="859" y="258" fill="#5679a6" font-size="24" font-weight="600">PostgreSQL</text><text x="859" y="293" fill="#626d7b" font-size="18">Users · expenses · budgets</text><text x="80" y="392" fill="#426f9c" font-size="16">INTERFACE</text><text x="80" y="428" fill="#626d7b" font-size="18">Recharts visualizations</text><text x="80" y="458" fill="#626d7b" font-size="18">Monthly budget progress</text><text x="465" y="392" fill="#426f9c" font-size="16">APPLICATION</text><text x="465" y="428" fill="#626d7b" font-size="18">SQLAlchemy queries</text><text x="465" y="458" fill="#626d7b" font-size="18">Category and date filters</text><text x="850" y="392" fill="#5679a6" font-size="16">PERSISTENCE</text><text x="850" y="428" fill="#626d7b" font-size="18">User-linked records</text><text x="850" y="458" fill="#626d7b" font-size="18">Monthly spending summaries</text><path d="M65 510H1135" stroke="#d3dae3"/><text x="65" y="558" fill="#426f9c" font-size="16">FLOW</text><text x="145" y="558" fill="#626d7b" font-size="22">Sign in → record expenses → aggregate by month → visualize spending</text><text x="65" y="607" fill="#626d7b" font-size="16">Architecture illustrated from the supplied application source. No sample financial results shown.</text></g></svg>